# xmcd
#
# Track frame offsets: 
#        150
#        30750
#        41775
#        58575
#        70950
#        80700
#        89925
#        105300
#        118800
#        126975
#        137925
#        153225
#        163650
#        174225
#        181425
#        191025
#        201450
#        241800
#
# Disc length: 3331 seconds
#
# Revision: 0
# Processed by: cddbd v1.5.2PL0 Copyright (c) Steve Scherf et al.
# Submitted via: ExactAudioCopyFreeDBPlugin 1.0
#
DISCID=040d0112
DTITLE=Fats Domino - Blueberry Hill
DYEAR=2007
DGENRE=Blues
TTITLE0=Let The Four Winds Blow
TTITLE1=Blueberry Hill
TTITLE2=Please Don't Leave Me
TTITLE3=When My Dreamboat Comes Home
TTITLE4=I'm Walking To New Orleans
TTITLE5=My Blue Heaven
TTITLE6=Ain't That A Shame
TTITLE7=I'm In Love Again
TTITLE8=Poor Me
TTITLE9=My Girl Josephine
TTITLE10=Goin' To The River
TTITLE11=Whiskey Heaven
TTITLE12=I'm Gonna Be A Wheel Someday
TTITLE13=When The Saints Go Marchin' In
TTITLE14=What A Price
TTITLE15=The Fat Man
TTITLE16=Jambalaya
TTITLE17=The Sheik Of Araby
EXTD=
EXTT0=
EXTT1=
EXTT2=
EXTT3=
EXTT4=
EXTT5=
EXTT6=
EXTT7=
EXTT8=
EXTT9=
EXTT10=
EXTT11=
EXTT12=
EXTT13=
EXTT14=
EXTT15=
EXTT16=
EXTT17=
PLAYORDER=
